<svg xmlns="http://www.w3.org/2000/svg" viewBox="0 0 539.24 402"><defs><style>.cls-1{opacity:0.5;}.cls-2{fill:#f2872f;}.cls-3{fill:#f15d48;}.cls-3,.cls-4{stroke:#231f20;stroke-linecap:round;stroke-linejoin:round;stroke-width:3px;}.cls-4{fill:#d14237;}</style></defs><g id="Layer_5" data-name="Layer 5"><g class="cls-1"><path class="cls-2" d="M351.48,252.27l1,.57a94.79,94.79,0,0,0,4.56-14.35c-.05-1.69-.16-5.35-.31-10.59l-8,.15a98.58,98.58,0,0,1,4.42,19l-.58.08A14.68,14.68,0,0,1,351.48,252.27Z"/><path class="cls-2" d="M339.47,257.8c-12.75-7.57-25.07-16.3-37.61-25.21l-4.41-3.12c0,.32.05.65.05,1v33.73c13.49.48,25.23,1.51,34.28,4C335.14,264,337.63,260.57,339.47,257.8Z"/><path class="cls-2" d="M372.25,160c13.48-.4,26.73-.83,39.37-1.3q-.31-10.47-.52-21.53c-1.19-64.79,1-124.59,2-137.16H363.89C367.1,27.68,370.19,101.56,372.25,160Z"/><path class="cls-2" d="M420.59,270.42q-3.09-19.12-5.22-43.67l-40.93.8c.18,6.36.3,10.42.33,11.48l0,.95-.17.93a106.35,106.35,0,0,1-6.18,19.62A122.84,122.84,0,0,0,420.59,270.42Z"/><path class="cls-2" d="M412,169.52c-13,.47-26.27.9-39.35,1.28.61,18,1.12,33.95,1.48,45.95L414.5,216Q412.91,194.59,412,169.52Z"/><path class="cls-2" d="M336.15,217.49c-2.78-12.75-6.66-32.58-7.14-45.56-31.3.71-56.11,1.11-63.31,1.21l-1.14,0-1-.44c-.81-.34-9-3.81-19.44-9.19-.76,2-1.54,4-2.35,6.07C253.47,183,266.46,195.51,280,204.33c7,4.56,13.7,9.24,20.27,13.87Z"/><path class="cls-2" d="M212.05,159.11l3.81,1.29,1.45-3.73-.76-1C215.08,156.74,213.58,157.9,212.05,159.11Z"/><path class="cls-2" d="M262.46,263.25c4.52.39,10.92.47,18.33.57,3,0,6,.08,8.85.14v-33.5a3,3,0,0,0-3.59-3c-16,2.91-44.69,7.3-56.79,4.12l2-7.6c7.68,2,26.77.53,52.46-4.08-3.19-2.19-6.41-4.37-9.68-6.51-12-7.83-24.26-18.69-36.76-32.45-8.12,20.44-17.89,44-28.39,68.76C224.55,254.66,249.76,262.16,262.46,263.25Z"/><path class="cls-2" d="M297.5,306.22c6.34-6.49,16-16.6,25.08-27-1.4-.26-2.91-.5-4.56-.73-6.4-.87-13.45-1.31-20.52-1.56Z"/><path class="cls-2" d="M202.28,107.94l14.79-11.66C219.84,88.47,237.14,38,235.59,0H185.31c.91,7.46,1.87,15.19,2.89,23C194.15,68.73,198.87,94,202.28,107.94Z"/><path class="cls-2" d="M328.82,161.12c-.7-25.83-4.34-76.33-11.54-88.77-2.95-5.1-19.28-32.92-35.94-61.27-9.25,48-17.89,90.75-22.95,110.71-1.86,7.31-5.5,18.15-10.47,31.55,8.78,4.56,16.15,7.84,18.77,9C285.78,162,307,161.63,328.82,161.12Z"/><path class="cls-2" d="M208.17,124.77c2.75,3.8,7.18,8,13.15,12.4,1.48-.86,2.84-1.6,4.07-2.2,2.91-8.23,5.09-15,6.34-19.94,5.09-20.09,14.12-65,23.72-115h-12c1.65,42.49-18.39,97.35-19.38,100l-.39,1-19.18,15.12a41.35,41.35,0,0,0,2.74,7.17C207.55,123.83,207.86,124.3,208.17,124.77Z"/><path class="cls-2" d="M456.8,341.18c18.39,31.87,41.95,58.71,57.64,74.89h6.71l-5.21-79Z"/><path class="cls-2" d="M422.88,22l72.05-3.74L493.72,0H424s0,.05,0,.07C423.72,2.47,423.31,10.26,422.88,22Z"/><path class="cls-2" d="M421.9,137q.21,10.95.52,21.32c38.39-1.52,69.58-3.36,81.38-5.43l-4.7-71.31-77.51,4.31C421.5,101.73,421.57,119,421.9,137Z"/><path class="cls-2" d="M455.66,28.18,422.61,29.9c-.41,13-.79,29.41-1,48.07l21.93-1.22v-8.5h10.8v7.9l44.2-2.45-3.13-47.58-31.93,1.66L463.6,37l-7.86.07Z"/><path class="cls-2" d="M445.87,279l-12.72.26c2.47,12.83,5.31,23.26,8.51,31.17,2.8,6.92,6,13.7,9.42,20.31l64.15-4.49L512,277.65l-58,1.2,5.35,19L451.78,300Z"/><path class="cls-2" d="M422.79,169.1c.62,16.76,1.48,32.34,2.56,46.65l82.49-1.61-3.33-50.54C490,165.86,458.4,167.68,422.79,169.1Z"/><path class="cls-2" d="M426.24,226.54c1.49,17,3.33,32,5.51,44.9l79.76-1.64-3-44.87Z"/><path class="cls-2" d="M157.76,30.38c9.21,7.45,23.38,42.08,29.32,57.37C182.3,61.86,177.85,28.82,174.38,0H147.64C151.6,16.21,155.28,28,157.76,30.38Z"/><path class="cls-2" d="M79.91,91.45h2.18a4.77,4.77,0,0,0,4.45-3l8.38-21.08a12.55,12.55,0,0,1,11.74-8,4.76,4.76,0,0,0,4.72-4l9-55.37H90.9C88.9,17.06,84.3,56.06,79.91,91.45Z"/><polygon class="cls-2" points="559.99 333.96 526.72 336.29 529.93 385 559.99 385 559.99 333.96"/><path class="cls-2" d="M339.16,230.39l-.2-.63c0-.16-.17-.69-.36-1.51l-23.53.46c9.56,6.75,18.86,13.16,28.27,18.85A85.31,85.31,0,0,0,339.16,230.39Z"/><polygon class="cls-2" points="522.32 269.58 547.16 269.07 547.32 276.92 522.84 277.43 526.01 325.51 559.99 323.13 559.99 223.92 519.37 224.72 522.32 269.58"/><path class="cls-2" d="M83,0H-5.26V329.89c22.43-54.8,65.53-161.13,68.07-171.32C65.22,148.93,76.48,55.58,83,0Z"/><path class="cls-2" d="M431.64,314.49q-5.22-12.9-9.15-33.32c-1.88.08-3.74.12-5.59.12a134.1,134.1,0,0,1-53.1-11.06,84.87,84.87,0,0,1-10.23,15c17.87,20.1,86.05,83.45,138.15,130.84h7.69C478.24,393.27,448.7,356.65,431.64,314.49Z"/><path class="cls-2" d="M176.5,177.25A116.49,116.49,0,0,1,190.59,161a21.41,21.41,0,0,0-17.14,7.21c-55.6,62.71-77.33,89.38-79.18,93.5l-.12.54c-6.44,29.2-15.06,47-25.62,52.84-5.13,2.86-17.19,10.19-30.68,18.5v7.1a4.8,4.8,0,0,0,3.85,4.69l8.8,1.74a12.66,12.66,0,0,1,10.19,12.4v4.77H52.83V359.5A4.79,4.79,0,0,0,49,354.81l-8.8-1.75A12.65,12.65,0,0,1,30,340.67v-2.25c-12.93,8-26.17,16.26-35.26,21.94v55.71H76.4C105.67,342.6,166.18,192.1,176.5,177.25Z"/><polygon class="cls-2" points="530.45 392.86 531.98 416.07 559.99 416.07 559.99 392.86 530.45 392.86"/><path class="cls-2" d="M64.72,308.21c11.15-6.2,18.42-32.53,21.75-47.67l.17-.73c.37-1.69,1.27-5.7,47.32-58.62l-9.59-39.55V146.36h7.86V160.7l8.06,33.24c7.87-9,16.9-19.26,27.28-31a29.25,29.25,0,0,1,30.27-8.65c3.77-3.27,7.57-6.3,11.2-9l-1.73-2.46a470.37,470.37,0,0,1-27.88-45l-.28-.62c-8-21.28-22-53.52-28.23-58.55C148.73,37,144.52,33.56,136.5,0h-8.16l-9.2,56.63a12.59,12.59,0,0,1-12.48,10.61,4.76,4.76,0,0,0-4.44,3L93.84,91.34a12.59,12.59,0,0,1-11.75,8H78.93c-.2,1.65-.41,3.28-.61,4.9l75.76-4.53.47,7.85-77.24,4.61c-3.09,24.35-5.77,43.92-6.87,48.33C67.12,173.75,1.72,331.16-.94,337.65l-4.32-7.76v21.2C16.51,337.49,54.21,314.05,64.72,308.21Z"/><polygon class="cls-2" points="505.72 17.71 558.14 14.99 558.55 22.84 506.24 25.55 509.37 73.1 541.58 71.31 542.02 79.15 509.89 80.94 514.64 153.09 550.12 153.09 550.12 160.95 515.16 160.95 518.65 213.93 559.99 213.12 559.99 0 504.55 0 505.72 17.71"/><path class="cls-2" d="M344.44,248.22l.09.06a.25.25,0,0,0,0-.07Z"/><path class="cls-2" d="M354.94,171.29c-5.48.14-10.87.28-16.11.4.48,12.73,4.63,33.33,7.34,45.61l10.26-.2C356.06,205.13,355.56,189.19,354.94,171.29Z"/><path class="cls-2" d="M347.87,262.56l-1.54-.84c-1.75,2.66-4,5.75-6.79,9.35.68.33,1.34.67,2,1A68.38,68.38,0,0,0,347.87,262.56Z"/><path class="cls-2" d="M334.5,28.64a38.63,38.63,0,0,1-11.57,27.49l-2.39,2.34c2.58,4.4,4.42,7.55,5.24,9,8.67,15,12.13,68.68,12.85,93.46l15.93-.41c-2.12-60-5.3-136.16-8.48-160.48H334.5Z"/><path class="cls-2" d="M187,184.54c-8.71,12.52-62.71,145.94-96.85,231.53h15.72c29.55-65.86,79.45-178.4,107.12-248.34L205,165A115.33,115.33,0,0,0,187,184.54Z"/><path class="cls-2" d="M305.65,356.37c13.39-46.42,21.86-65.46,27.48-74.2-.61-.26-1.28-.53-2-.8-.71.84-1.44,1.68-2.19,2.56-12.17,14-25.53,27.58-30.71,32.77a11.27,11.27,0,0,1-6.76,3.23l-25.9,2.8a11.2,11.2,0,0,1-5.77-.89l-46-20.29a3.42,3.42,0,0,0-4.71,2.35L183.14,416.07H289.81C292,406.94,298.2,382.21,305.65,356.37Z"/><path class="cls-2" d="M201.41,302.14a11.26,11.26,0,0,1,15.53-7.78l46,20.29a3.46,3.46,0,0,0,1.74.27l25-2.7v-35.5c-3.06-.06-6.09-.1-9-.14-7.66-.09-14.28-.18-19.26-.61-14.32-1.23-41.48-9.36-57.51-14.47-23,53.88-48.69,111.82-67.84,154.57h39Z"/><path class="cls-2" d="M345.78,295.43C335,315.8,318.56,373,308,416.07H472.75C433.12,379.93,368.4,320.24,345.78,295.43Z"/><path class="cls-2" d="M316.45,51.48l1-1a30.77,30.77,0,0,0,9.21-21.87V0H286.22C297.31,18.88,308.67,38.22,316.45,51.48Z"/></g><path class="cls-3" d="M281.65,195.65a13.1,13.1,0,1,0-22.38,9.23,14.16,14.16,0,0,1,2.29,2.88l6.62,11.48a.43.43,0,0,0,.74,0l6.63-11.49a13.93,13.93,0,0,1,2.27-2.87A13,13,0,0,0,281.65,195.65Z"/><circle class="cls-4" cx="268.55" cy="195.65" r="5.5"/></g></svg>