<?xml version="1.0" encoding="utf-8"?>
<!-- Generator: Adobe Illustrator 26.0.2, SVG Export Plug-In . SVG Version: 6.00 Build 0)  -->
<svg version="1.1" id="Layer_1" xmlns="http://www.w3.org/2000/svg" xmlns:xlink="http://www.w3.org/1999/xlink" x="0px" y="0px"
	 viewBox="0 0 539.2 402" style="enable-background:new 0 0 539.2 402;" xml:space="preserve">
<style type="text/css">
	.st0{opacity:0.28;}
	.st1{fill:#1E1919;}
	.st2{fill:#F55C47;stroke:#231F20;stroke-width:3;stroke-linecap:round;stroke-linejoin:round;}
</style>
<g class="st0">
	<path class="st1" d="M351.5,252.3l1,0.6c1.9-4.7,3.4-9.5,4.6-14.4c0-1.7-0.2-5.4-0.3-10.6l-8,0.1c2.1,6.2,3.6,12.5,4.4,19l-0.6,0.1
		C352.5,248.9,352.1,250.6,351.5,252.3z"/>
	<path class="st1" d="M339.5,257.8c-12.8-7.6-25.1-16.3-37.6-25.2l-4.4-3.1c0,0.3,0,0.6,0,1v33.7c13.5,0.5,25.2,1.5,34.3,4
		C335.1,264,337.6,260.6,339.5,257.8z"/>
	<path class="st1" d="M372.2,160c13.5-0.4,26.7-0.8,39.4-1.3c-0.2-7-0.4-14.2-0.5-21.5c-1.2-64.8,1-124.6,2-137.2h-49.2
		C367.1,27.7,370.2,101.6,372.2,160z"/>
	<path class="st1" d="M420.6,270.4c-2.1-12.7-3.8-27.3-5.2-43.7l-40.9,0.8c0.2,6.4,0.3,10.4,0.3,11.5v0.9l-0.2,0.9
		c-1.4,6.7-3.5,13.3-6.2,19.6C384.9,267.6,402.7,271,420.6,270.4z"/>
	<path class="st1" d="M412,169.5c-13,0.5-26.3,0.9-39.4,1.3c0.6,18,1.1,33.9,1.5,45.9l40.4-0.8C413.4,201.7,412.6,186.2,412,169.5z"
		/>
	<path class="st1" d="M336.1,217.5c-2.8-12.8-6.7-32.6-7.1-45.6c-31.3,0.7-56.1,1.1-63.3,1.2h-1.1l-1-0.4c-0.8-0.3-9-3.8-19.4-9.2
		c-0.8,2-1.5,4-2.4,6.1c11.7,13.4,24.7,25.9,38.2,34.7c7,4.6,13.7,9.2,20.3,13.9L336.1,217.5z"/>
	<path class="st1" d="M212.1,159.1l3.8,1.3l1.4-3.7l-0.8-1C215.1,156.7,213.6,157.9,212.1,159.1z"/>
	<path class="st1" d="M262.5,263.2c4.5,0.4,10.9,0.5,18.3,0.6c3,0,6,0.1,8.9,0.1v-33.5c0-1.7-1.3-3-2.9-3.1c-0.2,0-0.4,0-0.6,0.1
		c-16,2.9-44.7,7.3-56.8,4.1l2-7.6c7.7,2,26.8,0.5,52.5-4.1c-3.2-2.2-6.4-4.4-9.7-6.5c-12-7.8-24.3-18.7-36.8-32.4
		c-8.1,20.4-17.9,44-28.4,68.8C224.6,254.7,249.8,262.2,262.5,263.2z"/>
	<path class="st1" d="M297.5,306.2c6.3-6.5,16-16.6,25.1-27c-1.4-0.3-2.9-0.5-4.6-0.7c-6.4-0.9-13.5-1.3-20.5-1.6V306.2z"/>
	<path class="st1" d="M202.3,107.9l14.8-11.7c2.8-7.8,20.1-58.3,18.5-96.3h-50.3c0.9,7.5,1.9,15.2,2.9,23
		C194.1,68.7,198.9,94,202.3,107.9z"/>
	<path class="st1" d="M328.8,161.1c-0.7-25.8-4.3-76.3-11.5-88.8c-3-5.1-19.3-32.9-35.9-61.3c-9.2,48-17.9,90.8-23,110.7
		c-1.9,7.3-5.5,18.1-10.5,31.6c8.8,4.6,16.1,7.8,18.8,9C285.8,162,307,161.6,328.8,161.1z"/>
	<path class="st1" d="M208.2,124.8c2.8,3.8,7.2,8,13.1,12.4c1.5-0.9,2.8-1.6,4.1-2.2c2.9-8.2,5.1-15,6.3-19.9
		c5.1-20.1,14.1-65,23.7-115h-12c1.6,42.5-18.4,97.3-19.4,100l-0.4,1l-19.2,15.1c0.7,2.5,1.6,4.9,2.7,7.2
		C207.6,123.8,207.9,124.3,208.2,124.8z"/>
	<path class="st1" d="M456.8,341.2c18.4,31.9,42,58.7,57.6,74.9h6.7l-5.2-79L456.8,341.2z"/>
	<path class="st1" d="M422.9,22l72-3.7L493.7,0H424v0.1C423.7,2.5,423.3,10.3,422.9,22z"/>
	<path class="st1" d="M421.9,137c0.1,7.3,0.3,14.4,0.5,21.3c38.4-1.5,69.6-3.4,81.4-5.4l-4.7-71.3l-77.5,4.3
		C421.5,101.7,421.6,119,421.9,137z"/>
	<path class="st1" d="M455.7,28.2l-33.1,1.7c-0.4,13-0.8,29.4-1,48.1l21.9-1.2v-8.5h10.8v7.9l44.2-2.4l-3.1-47.6l-31.9,1.7l0.1,9.2
		l-7.9,0.1V28.2z"/>
	<path class="st1" d="M445.9,279l-12.7,0.3c2.5,12.8,5.3,23.3,8.5,31.2c2.8,6.9,6,13.7,9.4,20.3l64.2-4.5l-3.2-48.6l-58,1.2l5.4,19
		l-7.6,2.1L445.9,279z"/>
	<path class="st1" d="M422.8,169.1c0.6,16.8,1.5,32.3,2.6,46.6l82.5-1.6l-3.3-50.5C490,165.9,458.4,167.7,422.8,169.1z"/>
	<path class="st1" d="M426.2,226.5c1.5,17,3.3,32,5.5,44.9l79.8-1.6l-3-44.9L426.2,226.5z"/>
	<path class="st1" d="M157.8,30.4c9.2,7.4,23.4,42.1,29.3,57.4c-4.8-25.9-9.2-58.9-12.7-87.8h-26.7C151.6,16.2,155.3,28,157.8,30.4z
		"/>
	<path class="st1" d="M79.9,91.4h2.2c2,0,3.7-1.2,4.4-3l8.4-21.1c1.9-4.8,6.5-8,11.7-8c2.3,0,4.3-1.7,4.7-4l9-55.4H90.9
		C88.9,17.1,84.3,56.1,79.9,91.4z"/>
	<polygon class="st1" points="560,334 526.7,336.3 529.9,385 560,385 	"/>
	<path class="st1" d="M339.2,230.4l-0.2-0.6c0-0.2-0.2-0.7-0.4-1.5l-23.5,0.5c9.6,6.8,18.9,13.2,28.3,18.9
		C342.5,241.7,341.1,236,339.2,230.4z"/>
	<polygon class="st1" points="522.3,269.6 547.2,269.1 547.3,276.9 522.8,277.4 526,325.5 560,323.1 560,223.9 519.4,224.7 	"/>
	<path class="st1" d="M83,0H-5.3v329.9c22.4-54.8,65.5-161.1,68.1-171.3C65.2,148.9,76.5,55.6,83,0z"/>
	<path class="st1" d="M431.6,314.5c-3.5-8.6-6.5-19.7-9.1-33.3c-1.9,0.1-3.7,0.1-5.6,0.1c-18.3,0-36.3-3.8-53.1-11.1
		c-2.9,5.4-6.3,10.4-10.2,15c17.9,20.1,86,83.5,138.1,130.8h7.7C478.2,393.3,448.7,356.6,431.6,314.5z"/>
	<path class="st1" d="M176.5,177.2c4.2-5.8,8.9-11.3,14.1-16.2c-6.5-0.3-12.8,2.3-17.1,7.2c-55.6,62.7-77.3,89.4-79.2,93.5l-0.1,0.5
		c-6.4,29.2-15.1,47-25.6,52.8c-5.1,2.9-17.2,10.2-30.7,18.5v7.1c0,2.3,1.6,4.2,3.8,4.7l8.8,1.7c5.9,1.2,10.2,6.4,10.2,12.4v4.8
		h-7.9v-4.8c0-2.3-1.6-4.2-3.8-4.7l-8.8-1.8c-5.9-1.2-10.2-6.4-10.2-12.4v-2.2c-12.9,8-26.2,16.3-35.3,21.9v55.7h81.7
		C105.7,342.6,166.2,192.1,176.5,177.2z"/>
	<polygon class="st1" points="530.5,392.9 532,416.1 560,416.1 560,392.9 	"/>
	<path class="st1" d="M64.7,308.2c11.2-6.2,18.4-32.5,21.8-47.7l0.2-0.7c0.4-1.7,1.3-5.7,47.3-58.6l-9.6-39.6v-15.3h7.9v14.3
		l8.1,33.2c7.9-9,16.9-19.3,27.3-31c7.5-8.5,19.4-11.9,30.3-8.6c3.8-3.3,7.6-6.3,11.2-9l-1.7-2.5c-10.1-14.5-19.4-29.5-27.9-45
		l-0.3-0.6c-8-21.3-22-53.5-28.2-58.5c-2.2-1.7-6.4-5.1-14.4-38.7h-8.2l-9.2,56.6c-1,6.1-6.3,10.6-12.5,10.6c-2,0-3.7,1.2-4.4,3
		L94,91.2c-1.9,4.8-6.6,8-11.8,8H79c-0.2,1.7-0.4,3.3-0.6,4.9l75.8-4.5l0.5,7.8L77.5,112c-3.1,24.4-5.8,43.9-6.9,48.3
		C67.1,173.8,1.7,331.2-0.9,337.6l-4.3-7.8V351C16.5,337.5,54.2,314,64.7,308.2z"/>
	<polygon class="st1" points="505.7,17.7 558.1,15 558.5,22.8 506.2,25.5 509.4,73.1 541.6,71.3 542,79.2 509.9,80.9 514.6,153.1 
		550.1,153.1 550.1,160.9 515.2,160.9 518.7,213.9 560,213.1 560,0 504.5,0 	"/>
	<path class="st1" d="M344.4,248.2L344.4,248.2C344.5,248.3,344.5,248.2,344.4,248.2L344.4,248.2z"/>
	<path class="st1" d="M354.9,171.3c-5.5,0.1-10.9,0.3-16.1,0.4c0.5,12.7,4.6,33.3,7.3,45.6l10.3-0.2
		C356.1,205.1,355.6,189.2,354.9,171.3z"/>
	<path class="st1" d="M347.9,262.6l-1.5-0.8c-1.8,2.7-4,5.8-6.8,9.4c0.7,0.3,1.3,0.7,2,1C343.9,269.1,346,265.9,347.9,262.6z"/>
	<path class="st1" d="M334.5,28.6c0,10.3-4.2,20.2-11.6,27.5l-2.4,2.3c2.6,4.4,4.4,7.5,5.2,9c8.7,15,12.1,68.7,12.9,93.5l15.9-0.4
		c-2.1-60-5.3-136.2-8.5-160.5h-11.6v28.6H334.5z"/>
	<path class="st1" d="M187,184.5C178.3,197,124.3,330.4,90.2,416h15.7c29.5-65.9,79.5-178.4,107.1-248.3l-8-2.7
		C198.3,170.8,192.2,177.4,187,184.5z"/>
	<path class="st1" d="M305.6,356.4c13.4-46.4,21.9-65.5,27.5-74.2c-0.6-0.3-1.3-0.5-2-0.8c-0.7,0.8-1.4,1.7-2.2,2.6
		c-12.2,14-25.5,27.6-30.7,32.8c-1.8,1.8-4.2,3-6.8,3.2l-25.9,2.8c-2,0.2-4-0.1-5.8-0.9l-46-20.3c-1.7-0.8-3.7,0-4.5,1.7
		c-0.1,0.2-0.2,0.4-0.2,0.6l-26,112.2h106.7C292,406.9,298.2,382.2,305.6,356.4z"/>
	<path class="st1" d="M201.4,302.1c1.4-6.1,7.4-9.8,13.5-8.5c0.7,0.2,1.4,0.4,2,0.7l46,20.3c0.5,0.2,1.1,0.3,1.7,0.3l25-2.7v-35.5
		c-3.1-0.1-6.1-0.1-9-0.1c-7.7-0.1-14.3-0.2-19.3-0.6c-14.3-1.2-41.5-9.4-57.5-14.5c-23,53.9-48.7,111.8-67.8,154.6h39L201.4,302.1z
		"/>
	<path class="st1" d="M345.8,295.4C335,315.8,318.6,373,308,416.1h164.8C433.1,379.9,368.4,320.2,345.8,295.4z"/>
	<path class="st1" d="M316.5,51.5l1-1c5.9-5.8,9.2-13.6,9.2-21.9V0h-40.4C297.3,18.9,308.7,38.2,316.5,51.5z"/>
</g>
<path class="st2" d="M281.6,195.6c0-7.2-5.8-13.1-13.1-13.1s-13.1,5.8-13.1,13.1c0,3.5,1.4,6.8,3.8,9.3c0.9,0.9,1.7,1.8,2.3,2.9
	l6.6,11.5c0.1,0.2,0.4,0.3,0.6,0.2c0.1,0,0.1-0.1,0.2-0.2l6.6-11.5c0.6-1.1,1.4-2,2.3-2.9C280.3,202.4,281.7,199.1,281.6,195.6z"/>
<circle class="st2" cx="268.5" cy="195.6" r="5.5"/>
</svg>
