<svg id="Layer_4" data-name="Layer 4" xmlns="http://www.w3.org/2000/svg" viewBox="0 0 30.49 30.27"><defs><style>.cls-1{fill:#f9f9f9;stroke:#f55c47;stroke-miterlimit:10;}</style></defs><path class="cls-1" d="M15.25,6.42H25.78a.46.46,0,0,1,.41.66L20.88,17.86,15.25,29.3,9.61,17.86,4.31,7.08a.46.46,0,0,1,.41-.66Z"/><polygon class="cls-1" points="15.25 9.97 24.76 9.97 20 19.64 15.25 29.3 10.49 19.64 5.73 9.97 15.25 9.97"/><circle class="cls-1" cx="18.2" cy="13.2" r="2.62"/><path class="cls-1" d="M9.7,18c.11,0,.21,0,.32,0a3.11,3.11,0,1,0-2.63-4.74Z"/><path class="cls-1" d="M13.26,25.27h0a2.62,2.62,0,1,0-2.08-4.2Z"/><path class="cls-1" d="M18.67,22.35l1.94-4a2.13,2.13,0,0,0-1.32-.32,2.21,2.21,0,0,0-.62,4.27Z"/></svg>