<svg id="Layer_4" data-name="Layer 4" xmlns="http://www.w3.org/2000/svg" viewBox="0 0 30.49 30.27"><defs><style>.cls-1{fill:#f55c47;stroke-width:0.5px;}.cls-1,.cls-2{stroke:#f55c47;stroke-miterlimit:10;}.cls-2{fill:#fff;}</style></defs><path class="cls-1" d="M16.17,10.85A1.88,1.88,0,0,0,16,8.7c-.89-.89-1.55-.81-2-2.23a2.7,2.7,0,0,1,1-2.84s-.37,2.45.64,3C16.41,7,20.16,8.29,16.17,10.85Z"/><path class="cls-1" d="M13.74,11.11a1,1,0,0,0-.1-1.14c-.48-.47-.84-.43-1.07-1.18a1.43,1.43,0,0,1,.56-1.52s-.21,1.31.34,1.58S15.93,9.75,13.74,11.11Z"/><path class="cls-2" d="M23.11,20.74q7.08.68,0,0c5.2,0,5.48-.49.47-.93C28.46,18.19,26.52,17,21,18a.07.07,0,0,1,0-.13c1.37-.88,1-1.62-.74-.9a.42.42,0,0,1-.63-.4c-.06-1.35-2-1.68-4.25-.11-2.25-1.57-4.21-1.2-4.28.2a.4.4,0,0,1-.62.38c-1.69-.76-2.18,0-.89.84a.07.07,0,0,1-.06.13c-5.58-1-7.53.21-2.64,1.83-5,.61-4.52,1.27.8,1.18h0c-4.55.59-.27,4.7,2.67,2.57-2.94,2.13,11.9,2.13,9.29,0,2.61,2.13,8.06-2.21,3.41-2.71,4.71.46,4.77.41.1-.09C27.8,21.21,27.83,21.19,23.11,20.74Z"/><line class="cls-2" x1="16" y1="23.66" x2="23.81" y2="10.72"/><path class="cls-2" d="M16,24.58a.9.9,0,0,1-.47-.13.92.92,0,0,1-.31-1.26L23,10.25a.92.92,0,0,1,1.57.95L16.78,24.14A.92.92,0,0,1,16,24.58Z"/><polygon class="cls-2" points="22.66 29.3 7.83 29.3 3.93 21.04 26.56 21.04 22.66 29.3"/><rect class="cls-2" x="3.01" y="19.51" width="24.47" height="1.53"/><line class="cls-2" x1="23.46" y1="27.23" x2="10.75" y2="27.23"/></svg>