<svg id="Layer_4" data-name="Layer 4" xmlns="http://www.w3.org/2000/svg" viewBox="0 0 30.49 30.27"><defs><style>.cls-1{fill:#f9f9f9;}.cls-1,.cls-2{stroke:#f55c47;stroke-miterlimit:10;}.cls-2{fill:none;}</style></defs><path class="cls-1" d="M8.23,18.12c1.38-.42,4.49-1.42,5.7-2.39,1.44-1.17,1-2,.23-2.47s-1.5.59-1.82.27-.71-.8-1.33-.69S9.81,14,9.81,14a1.7,1.7,0,0,0-2-.28c-1.3.56-.21,2.15-.89,1.84s-1.44-.47-2.27.87c-.43.7.13,1.27.76,1.66l.19,5.71a4.73,4.73,0,0,0,4.34,4.46l14.4,1A1.48,1.48,0,0,0,26,28.12v-.91L8.36,23.89Z"/><path class="cls-1" d="M7.54,18.23l.08,5.56a3.29,3.29,0,0,0,2.83,2.86l14.42,1.26a1,1,0,0,0,1.13-1v-5a1.32,1.32,0,0,0-.74-1.18l-11-5.17Z"/><path class="cls-2" d="M26,21.05,24.82,22a.89.89,0,0,1-.82.16L9.34,20.05"/><path class="cls-1" d="M17.67,16.17a1.06,1.06,0,0,0,.5-1A3.26,3.26,0,0,0,17.54,14h0a21.26,21.26,0,0,1-.45-3c-1.35,0-1.78.88-2.52,1.83-1.2.11-2.14.78-2.22,1.66a1.4,1.4,0,0,0,.16.75,2.12,2.12,0,0,0-1.16,1.63c-.12,1.35,1.44,1.84,3.39,2s3.56-.06,3.67-1.41C18.47,16.81,18.26,16.67,17.67,16.17Z"/><path class="cls-1" d="M12.37,14.83s.34,1.42,2.65,2"/><line class="cls-1" x1="10.73" y1="21.87" x2="11.34" y2="22.48"/><line class="cls-1" x1="12.82" y1="23.53" x2="13.85" y2="23.71"/><line class="cls-2" x1="21.71" y1="23.94" x2="20.68" y2="24.51"/><line class="cls-2" x1="18.54" y1="22.71" x2="18.85" y2="23.53"/><line class="cls-2" x1="20.06" y1="25.83" x2="19.16" y2="25.96"/><line class="cls-2" x1="10.62" y1="24.7" x2="11.71" y2="24.9"/><line class="cls-2" x1="16.16" y1="24.41" x2="16.16" y2="25.36"/><line class="cls-2" x1="24.37" y1="23.42" x2="24.11" y2="24.46"/><line class="cls-2" x1="15.02" y1="21.87" x2="15.25" y2="22.48"/></svg>