<svg id="Layer_4" data-name="Layer 4" xmlns="http://www.w3.org/2000/svg" viewBox="0 0 30.49 30.27"><defs><style>.cls-1{fill:#f9f9f9;stroke:#f55c47;stroke-miterlimit:10;}</style></defs><path class="cls-1" d="M11.31,22.49H13A1.07,1.07,0,0,1,14,23.56v3.89A1.85,1.85,0,0,1,12.2,29.3h0a2,2,0,0,1-2-2V23.56a1.07,1.07,0,0,1,1.07-1.07Z"/><path class="cls-1" d="M13.37,4V2.83H10.92V4A1.28,1.28,0,0,1,9.63,5.26H9.49A3.07,3.07,0,0,0,6.42,8.33V25.87a4.68,4.68,0,0,0,.72,2.58c1.52,2.3,3.09-.64,3.09-2.07v-.51h3.82a4.68,4.68,0,0,0,.72,2.58c1.51,2.3,3.09-.64,3.09-2.07v-18a3.07,3.07,0,0,0-3.07-3.07h-.14A1.28,1.28,0,0,1,13.37,4Z"/><rect class="cls-1" x="6.42" y="12.26" width="11.44" height="9.01"/><line class="cls-1" x1="14.55" y1="2.83" x2="9.73" y2="2.83"/><path class="cls-1" d="M10.83.78h2.62a.24.24,0,0,1,.24.24V2.83a0,0,0,0,1,0,0h-3.1a0,0,0,0,1,0,0V1a.24.24,0,0,1,.24-.24Z"/><polygon class="cls-1" points="15.99 17.2 16.59 16.38 16.59 15.46 23.47 15.46 23.47 16.38 24.07 17.2 24.07 27.57 23.47 28.39 23.47 29.3 16.59 29.3 16.59 28.39 15.99 27.57 15.99 17.2"/><line class="cls-1" x1="23.47" y1="16.38" x2="16.59" y2="16.38"/><line class="cls-1" x1="23.47" y1="28.39" x2="16.59" y2="28.39"/><line class="cls-1" x1="19.42" y1="15.46" x2="22.54" y2="14.89"/><rect class="cls-1" x="15.99" y="19.14" width="5.5" height="6.89" transform="translate(37.49 45.17) rotate(-180)"/></svg>