<svg id="Layer_4" data-name="Layer 4" xmlns="http://www.w3.org/2000/svg" viewBox="0 0 30.49 30.27"><defs><style>.cls-1,.cls-3{fill:#f9f9f9;}.cls-2{fill:none;}.cls-2,.cls-3{stroke:#f55c47;stroke-miterlimit:10;}</style></defs><path class="cls-1" d="M27,17.65c-.11-.9.87-1.16.48-2s-2.73-.27-3.36-.95.15-2.91-.62-3.42-2.55,1.09-3.41.76S19,9.36,18.12,9.2s-1.95,2-2.87,2-2-2.13-2.88-2-1.17,2.55-2,2.87S7.7,10.84,7,11.31s0,2.78-.62,3.42-3,.16-3.35.95.58,1.07.47,2c1.95.45,1.75,2.21,3.76,2.21s2-2.24,4-2.24,2,2.24,4,2.24,2-2.24,4-2.24,2.14,2.45,4.13,2.23S25.07,18.1,27,17.65Z"/><path class="cls-2" d="M27,17.65c-.11-.9.87-1.16.48-2s-2.73-.27-3.36-.95.15-2.91-.62-3.42-2.55,1.09-3.41.76S19,9.36,18.12,9.2s-1.95,2-2.87,2-2-2.13-2.88-2-1.17,2.55-2,2.87S7.7,10.84,7,11.31s0,2.78-.62,3.42-3,.16-3.35.95.58,1.07.47,2c1.95.45,1.75,2.21,3.76,2.21s2-2.24,4-2.24,2,2.24,4,2.24,2-2.24,4-2.24,2.14,2.45,4.13,2.23S25.07,18.1,27,17.65Z"/><path class="cls-3" d="M20.12,16.53l.06,1.41,1.34.72c1.86,1,3.81.21,4.22-1.68l.81-3.75-4,.34A2.67,2.67,0,0,0,20.12,16.53Z"/><circle class="cls-3" cx="10.21" cy="16.53" r="2.74"/><path class="cls-3" d="M16.93,20.17l.72.92,1.15-.38a2.89,2.89,0,0,0,1.73-3.88l-1.32-3.06L17,16.6A2.88,2.88,0,0,0,16.93,20.17Z"/><path class="cls-3" d="M21.46,17.73s1.26-2,2.45-2.39"/><path class="cls-3" d="M7.89,20l1,.12.49-1a2.61,2.61,0,0,0-1.37-3.58L5.25,14.5l.37,3.25A2.6,2.6,0,0,0,7.89,20Z"/><path class="cls-3" d="M2.17,17.56v4A7.74,7.74,0,0,0,9.89,29.3H20.6a7.74,7.74,0,0,0,7.72-7.72v-4Z"/><path class="cls-3" d="M4.48,21.56a5.75,5.75,0,0,0,5.74,5.74"/></svg>