<svg id="Layer_7" data-name="Layer 7" xmlns="http://www.w3.org/2000/svg" viewBox="0 0 92 92"><defs><style>.cls-1{fill:#fee6c5;}</style></defs><path class="cls-1" d="M57.89,74.15H34.11A16.27,16.27,0,0,1,17.85,57.89V34.11A16.27,16.27,0,0,1,34.11,17.85H57.89A16.27,16.27,0,0,1,74.15,34.11V57.89A16.27,16.27,0,0,1,57.89,74.15ZM34.11,22.85A11.27,11.27,0,0,0,22.85,34.11V57.89A11.27,11.27,0,0,0,34.11,69.15H57.89A11.27,11.27,0,0,0,69.15,57.89V34.11A11.27,11.27,0,0,0,57.89,22.85Z"/><path class="cls-1" d="M46,60.1A14.1,14.1,0,1,1,60.1,46,14.11,14.11,0,0,1,46,60.1Zm0-23.2A9.1,9.1,0,1,0,55.1,46,9.11,9.11,0,0,0,46,36.9Z"/><circle class="cls-1" cx="61.33" cy="31.55" r="3.72"/></svg>