<svg id="Layer_7" data-name="Layer 7" xmlns="http://www.w3.org/2000/svg" viewBox="0 0 92 92"><defs><style>.cls-1{fill:#fee6c5;}</style></defs><path class="cls-1" d="M76.82,26.14c-1.5,1.18-5,2.44-6.55,3a3.62,3.62,0,0,0-.13-.35c2.4-2.53,5-7.68,5-7.68-1.93,1.63-5.9,2.54-8,2.93a13,13,0,0,0-22.17,9.26c0,.11,0,1.1-.18,2.65C28.15,35.05,18,22.09,18,22.09c-5.58,9,3.63,17.4,3.63,17.4l-5.58-1.4C17.52,51,25.58,51,26.1,50.93l-5.19.19A15.41,15.41,0,0,0,31.13,60.4c-4,2.49-9.22,4.1-15.95,4.1A34.58,34.58,0,0,0,71,37.16V33.65C73.79,31.76,76.82,26.14,76.82,26.14Z"/></svg>